<svg xmlns="http://www.w3.org/2000/svg" width="50" height="35"><defs><style>.cls-1{fill:#fff}.cls-2{fill:#016fd0}</style></defs><g id="American-Express" transform="translate(-1780.554 -457)"><rect id="Rectangle_45" data-name="Rectangle 45" class="cls-1" width="50" height="35" rx="3" transform="translate(1780.554 457)"/><g id="Style-Guide" transform="translate(1786.554 466.23)"><g id="Style-Guide---Logos" transform="translate(-138 -942)"><g id="Group" transform="translate(138 942.769)"><path id="path3082" class="cls-1" d="M7.271 13.761V7.8H13.5l.668.882.69-.882h22.6v5.55a2.589 2.589 0 0 1-1.275.411H23.668l-.753-.939v.939h-2.469v-1.6a2.05 2.05 0 0 1-1.066.224h-.84v1.379H14.8l-.667-.9-.677.9z"/><path id="path3080" class="cls-1" d="M0 3.315 1.4 0h2.432l.8 1.857V0h3.016l.474 1.342L8.582 0h13.55v.675A2.9 2.9 0 0 1 24.015 0l4.4.016.785 1.832V0h2.526l.7 1.053V0h2.549v5.956h-2.559L31.75 4.9v1.056h-3.711l-.373-.939h-1l-.367.939h-2.515a2.474 2.474 0 0 1-1.652-.656v.661h-3.795l-.753-.939v.939H3.473L3.1 5.017h-.995l-.37.939H0z"/><path id="path3046" class="cls-2" d="M1.9.734.007 5.194H1.24l.35-.894h2.031l.348.893h1.26L3.337.734zm.7 1.038.619 1.561H1.981L2.6 1.772z"/><path id="path3048" class="cls-2" d="M5.359 5.193V.734L7.111.74l1.02 2.875.994-2.881h1.738v4.46h-1.1V1.907L8.6 5.193h-.97L6.46 1.907v3.286z"/><path id="path3050" class="cls-2" d="M11.617 5.193V.734h3.592v1h-2.48v.763h2.422v.939h-2.422v.792h2.48v.968z"/><path id="path3052" class="cls-2" d="M15.846.734v4.46h1.1V3.61h.464l1.32 1.584h1.345l-1.448-1.643a1.351 1.351 0 0 0 1.208-1.37A1.432 1.432 0 0 0 18.3.734zm1.1 1h1.258a.508.508 0 0 1 .521.469.5.5 0 0 1-.505.469h-1.273v-.94z"/><path id="path3054" class="cls-2" d="M21.408 5.193h-1.124V.734h1.124z"/><path id="path3056" class="cls-2" d="M24.073 5.193h-.243a1.957 1.957 0 0 1-1.887-2.212A2.031 2.031 0 0 1 24.131.734h1.217V1.79h-1.261a1.068 1.068 0 0 0-1.027 1.2 1.085 1.085 0 0 0 1.188 1.226h.29z"/><path id="path3058" class="cls-2" d="m26.469.734-1.894 4.46h1.233l.349-.893h2.031l.348.893H29.8L27.9.734zm.7 1.038.619 1.561h-1.24z"/><path id="path3060" class="cls-2" d="M29.925 5.193V.734h1.4l1.787 2.8v-2.8h1.1v4.46h-1.354l-1.832-2.876v2.875z"/><path id="path3062" class="cls-2" d="M8.024 13V8.538h3.592v1H9.137v.762h2.422v.939H9.137v.792h2.48V13z"/><path id="path3064" class="cls-2" d="M25.626 13V8.538h3.592v1h-2.48v.762h2.41v.939h-2.41v.792h2.48V13z"/><path id="path3066" class="cls-2" d="m11.756 13 1.749-2.2-1.791-2.262H13.1l1.066 1.4 1.07-1.4h1.334l-1.77 2.23L16.555 13h-1.386l-1.035-1.374L13.123 13z"/><path id="path3068" class="cls-2" d="M16.686 8.539V13h1.13v-1.41h1.159a1.53 1.53 0 0 0 1.725-1.551 1.458 1.458 0 0 0-1.581-1.5zm1.13 1.009h1.22a.5.5 0 0 1 .543.513.511.511 0 0 1-.547.513h-1.216z"/><path id="path3072" class="cls-2" d="M21.176 8.538V13h1.1v-1.587h.464L24.061 13h1.345l-1.448-1.643a1.352 1.352 0 0 0 1.208-1.37 1.432 1.432 0 0 0-1.539-1.447zm1.1 1h1.258a.508.508 0 0 1 .521.469.5.5 0 0 1-.505.469h-1.273v-.94z"/><path id="path3074" class="cls-2" d="M29.728 13v-.97h2.2c.326 0 .467-.178.467-.374s-.141-.377-.467-.377h-1a1.239 1.239 0 0 1-1.347-1.336c0-.715.441-1.4 1.727-1.4h2.144l-.464 1h-1.846c-.354 0-.464.188-.464.368a.386.386 0 0 0 .406.389h1.043a1.215 1.215 0 0 1 1.383 1.28A1.329 1.329 0 0 1 32.074 13z"/><path id="path3076" class="cls-2" d="M33.768 13v-.97h2.2c.326 0 .467-.178.467-.374s-.141-.377-.467-.377h-1a1.239 1.239 0 0 1-1.347-1.336c0-.715.441-1.4 1.727-1.4H37.5l-.464 1h-1.854c-.354 0-.464.188-.464.368a.386.386 0 0 0 .406.389h1.043a1.215 1.215 0 0 1 1.383 1.28A1.329 1.329 0 0 1 36.114 13z"/></g></g></g></g></svg>