<svg xmlns="http://www.w3.org/2000/svg" width="50" height="35"><defs><style>.cls-2{fill:#0099df}</style></defs><g id="maestro-card" transform="translate(-1850.554 -457)"><rect id="Rectangle_46" data-name="Rectangle 46" width="50" height="35" rx="3" transform="translate(1850.554 457)" fill="#fff"/><g id="Style-Guide" transform="translate(1857.343 460.541)"><g id="Style-Guide---Logos" transform="translate(-303 -936)"><g id="Maestro_2016" transform="translate(303.692 936.462)"><g id="Group" transform="translate(31.976 17.553)"><path id="Shape" class="cls-2" d="M1.3 0v-.4h-.1l-.12.272L.958-.4h-.1V0h.069v-.3l.112.258h.076L1.227-.3V0zM.644 0v-.329h.133V-.4H.439v.067h.132V0z"/></g><path id="Path" d="M21.525 19.259h-8.944V3.184h8.944z" fill="#6c6bbd"/><g id="Group-2" data-name="Group" transform="translate(.155 21.619)"><path id="Path-2" data-name="Path" d="M13-10.4a10.206 10.206 0 0 1 3.9-8.037 10.178 10.178 0 0 0-6.317-2.186A10.222 10.222 0 0 0 .364-10.4 10.222 10.222 0 0 0 10.586-.176 10.178 10.178 0 0 0 16.9-2.362 10.206 10.206 0 0 1 13-10.4" fill="#eb001b"/></g><g id="Group-3" data-name="Group" transform="translate(16.69 21.619)"><path id="Path-3" data-name="Path" class="cls-2" d="M16.9-10.4A10.222 10.222 0 0 1 6.677-.176 10.181 10.181 0 0 1 .359-2.362a10.2 10.2 0 0 0 3.9-8.037 10.2 10.2 0 0 0-3.9-8.037 10.181 10.181 0 0 1 6.318-2.186A10.222 10.222 0 0 1 16.9-10.4"/></g><g id="Group-4" data-name="Group" transform="translate(5.858 26.717)"><path id="Shape-2" data-name="Shape" d="M18.683-2.919a1.26 1.26 0 0 1 .421.074l-.182.556a.957.957 0 0 0-.369-.068c-.386 0-.579.25-.579.7v1.52h-.591v-2.714h.585v.33a.8.8 0 0 1 .716-.4m-2.184.61h-.965v1.226c0 .272.1.454.392.454a1.088 1.088 0 0 0 .522-.153l.17.505a1.385 1.385 0 0 1-.738.211c-.7 0-.942-.375-.942-1.005v-1.238h-.551v-.539h.551v-.823h.6v.823h.961zm-7.558.579a.7.7 0 0 1 .721-.659.674.674 0 0 1 .687.659zm2.022.239a1.3 1.3 0 0 0-1.289-1.426 1.326 1.326 0 0 0-1.351 1.425A1.338 1.338 0 0 0 9.715-.069a1.65 1.65 0 0 0 1.113-.38l-.29-.437a1.291 1.291 0 0 1-.789.286.754.754 0 0 1-.812-.664h2.015c.006-.074.012-.148.012-.227m2.595-.664a1.741 1.741 0 0 0-.846-.233c-.324 0-.517.12-.517.318 0 .181.2.233.46.266l.278.04c.591.086.948.335.948.812 0 .517-.454.886-1.237.886a1.959 1.959 0 0 1-1.176-.352l.278-.46a1.447 1.447 0 0 0 .9.284c.4 0 .619-.119.619-.33 0-.153-.153-.239-.477-.283l-.278-.04c-.608-.086-.937-.358-.937-.8 0-.539.443-.869 1.13-.869a2.028 2.028 0 0 1 1.107.284zm7.283-.2a.9.9 0 0 0-.339.064.813.813 0 0 0-.27.179.832.832 0 0 0-.179.276.934.934 0 0 0-.065.354.931.931 0 0 0 .065.354.832.832 0 0 0 .179.276.813.813 0 0 0 .27.179.882.882 0 0 0 .339.064.88.88 0 0 0 .339-.064.812.812 0 0 0 .272-.179.826.826 0 0 0 .181-.276.931.931 0 0 0 .065-.354.934.934 0 0 0-.065-.354.826.826 0 0 0-.181-.276.812.812 0 0 0-.272-.179.892.892 0 0 0-.339-.064m0-.561a1.529 1.529 0 0 1 .585.11 1.42 1.42 0 0 1 .465.3 1.381 1.381 0 0 1 .307.454 1.444 1.444 0 0 1 .111.569 1.444 1.444 0 0 1-.111.569 1.383 1.383 0 0 1-.307.454 1.43 1.43 0 0 1-.465.3 1.541 1.541 0 0 1-.585.109 1.541 1.541 0 0 1-.585-.109 1.415 1.415 0 0 1-.463-.3 1.4 1.4 0 0 1-.306-.454 1.444 1.444 0 0 1-.111-.569 1.444 1.444 0 0 1 .111-.569 1.4 1.4 0 0 1 .306-.454 1.4 1.4 0 0 1 .463-.3 1.529 1.529 0 0 1 .585-.11M5.492-1.494a.815.815 0 0 1 .823-.869.814.814 0 0 1 .818.869.813.813 0 0 1-.818.868.814.814 0 0 1-.823-.868m2.2 0v-1.357H7.1v.33a1.03 1.03 0 0 0-.857-.4 1.36 1.36 0 0 0-1.358 1.427A1.36 1.36 0 0 0 6.242-.068a1.03 1.03 0 0 0 .857-.4v.33h.59zM4.363-.137v-1.7A1.01 1.01 0 0 0 3.3-2.919a1.05 1.05 0 0 0-.954.483 1 1 0 0 0-.9-.483.9.9 0 0 0-.795.4v-.335H.059v2.717h.6v-1.5a.635.635 0 0 1 .664-.721c.392 0 .591.255.591.716v1.51h.6v-1.5a.641.641 0 0 1 .664-.721c.4 0 .6.255.6.716v1.51z" fill="#9b9b9b"/></g><g id="Group-5" data-name="Group" transform="translate(28.155 27.027)"><path id="Shape-3" data-name="Shape" d="M.65-.65v.067h.062a.061.061 0 0 0 .033-.008.028.028 0 0 0 .013-.026.027.027 0 0 0-.013-.024.056.056 0 0 0-.033-.009zM.712-.7a.114.114 0 0 1 .074.021.071.071 0 0 1 .026.058.067.067 0 0 1-.021.051.1.1 0 0 1-.059.025l.082.094H.751L.675-.54H.65v.094H.6V-.7zM.7-.361a.2.2 0 0 0 .077-.016.213.213 0 0 0 .067-.045.209.209 0 0 0 .044-.067A.214.214 0 0 0 .9-.571a.214.214 0 0 0-.012-.082.216.216 0 0 0-.044-.066.2.2 0 0 0-.067-.045A.2.2 0 0 0 .7-.78a.206.206 0 0 0-.083.016.2.2 0 0 0-.068.044.2.2 0 0 0-.049.067.2.2 0 0 0-.016.082.2.2 0 0 0 .016.082.2.2 0 0 0 .044.067.212.212 0 0 0 .068.045.206.206 0 0 0 .088.016m0-.48a.265.265 0 0 1 .1.022.268.268 0 0 1 .09.058.265.265 0 0 1 .058.086.258.258 0 0 1 .021.1.258.258 0 0 1-.021.1.269.269 0 0 1-.058.094.28.28 0 0 1-.09.059.265.265 0 0 1-.1.022.274.274 0 0 1-.112-.022A.273.273 0 0 1 .5-.381a.269.269 0 0 1-.059-.085.258.258 0 0 1-.021-.1.258.258 0 0 1 .021-.1A.265.265 0 0 1 .5-.761a.261.261 0 0 1 .088-.058A.274.274 0 0 1 .7-.84" fill="#231f20"/></g></g></g></g></g></svg>