<svg xmlns="http://www.w3.org/2000/svg" width="50" height="35"><defs><style>.cls-5{fill:#f79e1b}</style></defs><g id="mastercard-icon" transform="translate(-1920.555 -457.5)"><rect id="Rectangle_47" data-name="Rectangle 47" width="50" height="35" rx="3" transform="translate(1920.555 457.5)" fill="#fff"/><g id="Style-Guide" transform="translate(1927.816 460.84)"><g id="Style-Guide---Logos" transform="translate(-381 -936)"><g id="mc_vrt_pos" transform="translate(381.558 936.481)"><path id="Shape" d="M6.231 25.9v-1.711A1.016 1.016 0 0 0 5.158 23.1a1.056 1.056 0 0 0-.959.485 1 1 0 0 0-.9-.485.9.9 0 0 0-.8.405v-.337H1.9V25.9h.6v-1.5a.639.639 0 0 1 .668-.725c.394 0 .594.257.594.719v1.519h.6V24.4a.642.642 0 0 1 .668-.725c.405 0 .6.257.6.719v1.519zm8.869-2.727h-.976v-.828h-.6v.828h-.542v.542h.554v1.256c0 .634.245 1.011.948 1.011a1.393 1.393 0 0 0 .742-.211l-.171-.508a1.1 1.1 0 0 1-.525.154c-.285 0-.394-.183-.394-.457v-1.245h.971zm5.064-.069a.8.8 0 0 0-.719.4v-.331h-.588V25.9h.594v-1.53c0-.451.194-.7.571-.7a.968.968 0 0 1 .371.069l.183-.571a1.27 1.27 0 0 0-.422-.074zm-7.656.285A2.041 2.041 0 0 0 11.4 23.1c-.691 0-1.142.331-1.142.873 0 .445.331.719.942.8l.285.04c.325.046.48.131.48.285 0 .211-.217.331-.622.331a1.453 1.453 0 0 1-.908-.285l-.285.462a1.97 1.97 0 0 0 1.182.354c.788 0 1.245-.371 1.245-.891s-.36-.731-.953-.816l-.285-.04c-.257-.034-.462-.086-.462-.268s.194-.32.52-.32a1.758 1.758 0 0 1 .856.234zm15.9-.285a.8.8 0 0 0-.719.4v-.331H27.1V25.9h.6v-1.53c0-.451.194-.7.571-.7a.968.968 0 0 1 .371.069l.183-.571a1.27 1.27 0 0 0-.422-.074zm-7.65 1.427a1.379 1.379 0 0 0 1.456 1.427 1.427 1.427 0 0 0 .982-.325l-.285-.48a1.2 1.2 0 0 1-.714.245.876.876 0 0 1 0-1.747 1.2 1.2 0 0 1 .714.245l.285-.48a1.427 1.427 0 0 0-.982-.325 1.379 1.379 0 0 0-1.456 1.427zm5.561 0v-1.358h-.594v.327a1.036 1.036 0 0 0-.856-.4 1.427 1.427 0 0 0 0 2.855 1.036 1.036 0 0 0 .856-.4v.331h.594zm-2.209 0a.819.819 0 1 1 .223.618.825.825 0 0 1-.223-.618zM16.947 23.1a1.427 1.427 0 0 0 .04 2.855 1.658 1.658 0 0 0 1.133-.371l-.285-.44a1.3 1.3 0 0 1-.794.285.756.756 0 0 1-.816-.668h2.027v-.228a1.3 1.3 0 0 0-1.3-1.427zm0 .531a.677.677 0 0 1 .691.662h-1.427a.7.7 0 0 1 .725-.662zm14.875.9v-2.454h-.571V23.5a1.036 1.036 0 0 0-.856-.4 1.427 1.427 0 1 0 0 2.855 1.036 1.036 0 0 0 .856-.4v.331h.571zm.991.968a.274.274 0 0 1 .257.163.265.265 0 0 1 0 .211.273.273 0 0 1-.148.143.268.268 0 0 1-.108.023.285.285 0 0 1-.257-.166.268.268 0 0 1 0-.211.277.277 0 0 1 .265-.163zm0 .482a.2.2 0 0 0 .083-.017.214.214 0 0 0 .066-.046.206.206 0 0 0-.066-.331.206.206 0 0 0-.083-.017.214.214 0 0 0-.083.017.208.208 0 0 0-.069.046.207.207 0 0 0 .16.348zm.017-.34a.114.114 0 0 1 .074.023.071.071 0 0 1 .026.06.069.069 0 0 1-.02.051.1.1 0 0 1-.06.026l.083.094h-.066l-.077-.094h-.026v.099h-.054v-.251zm-.063.049v.069h.063a.06.06 0 0 0 .034 0 .029.029 0 0 0 0-.026.029.029 0 0 0 0-.026.06.06 0 0 0-.034 0zm-3.14-1.159a.819.819 0 1 1 .223.618.825.825 0 0 1-.223-.618zm-20.047 0v-1.358h-.594v.327a1.036 1.036 0 0 0-.856-.4 1.427 1.427 0 1 0 0 2.855 1.036 1.036 0 0 0 .856-.4v.331h.594zm-2.209 0a.35.35 0 1 1-.006 0z" fill="#9b9b9b"/><g id="_Group_" transform="translate(.137 .137)"><path id="Rectangle" transform="translate(12.174 2.241)" d="M0 0h8.992v16.159H0z" fill="#ff5f00"/><path id="_Path_" d="M12.745 10.322a10.259 10.259 0 0 1 3.925-8.081 10.276 10.276 0 1 0 0 16.159 10.259 10.259 0 0 1-3.925-8.078z" fill="#eb001b"/><path id="Path" class="cls-5" d="M33.3 10.322A10.276 10.276 0 0 1 16.67 18.4a10.276 10.276 0 0 0 0-16.159 10.276 10.276 0 0 1 16.63 8.078z"/><path id="Shape-2" data-name="Shape" class="cls-5" d="M32.316 16.687v-.331h.134v-.069h-.34v.069h.146v.331zm.659 0v-.4h-.1l-.12.285-.12-.285h-.091v.4h.074v-.3l.111.26h.071l.111-.26v.3z"/></g></g></g></g></g></svg>