<svg xmlns="http://www.w3.org/2000/svg" width="78" height="35"><defs><style>.cls-2{fill:#253b80}.cls-3{fill:#179bd7}</style></defs><g id="PayPal-icon" transform="translate(-1990.555 -457.5)"><rect id="Rectangle_48" data-name="Rectangle 48" width="78" height="35" rx="3" transform="translate(1990.555 457.5)" fill="#fff"/><g id="Style-Guide" transform="translate(1995.67 465.691)"><g id="Style-Guide---Logos" transform="translate(-615 -941)"><g id="PayPal" transform="translate(615.885 941.808)"><path id="Shape" class="cls-2" d="M24.5 3.578h-3.625a.5.5 0 0 0-.5.425L18.91 13.3a.3.3 0 0 0 .3.349h1.73a.5.5 0 0 0 .5-.426l.4-2.508a.5.5 0 0 1 .5-.426h1.148a3.724 3.724 0 0 0 4.127-3.446 2.793 2.793 0 0 0-.472-2.343 3.364 3.364 0 0 0-2.643-.922zm.418 3.4c-.2 1.3-1.192 1.3-2.154 1.3h-.547l.384-2.43a.3.3 0 0 1 .3-.255h.251c.655 0 1.272 0 1.592.373a1.208 1.208 0 0 1 .175 1.008z"/><path id="Shape-2" data-name="Shape" class="cls-2" d="M35.339 6.932H33.6a.3.3 0 0 0-.3.255l-.077.486-.117-.173a2.471 2.471 0 0 0-2.051-.728 3.993 3.993 0 0 0-3.877 3.492 3.277 3.277 0 0 0 .647 2.667 2.717 2.717 0 0 0 2.187.883 3.322 3.322 0 0 0 2.4-.994l-.077.482a.3.3 0 0 0 .3.35H34.2a.5.5 0 0 0 .5-.426l.938-5.943a.3.3 0 0 0-.299-.351zm-2.42 3.379a1.935 1.935 0 0 1-1.959 1.659 1.345 1.345 0 0 1-1.438-1.688 1.944 1.944 0 0 1 1.945-1.672 1.465 1.465 0 0 1 1.158.473 1.5 1.5 0 0 1 .294 1.229z"/><path id="Path" class="cls-2" d="M44.587 6.932h-1.745a.506.506 0 0 0-.417.221L40.018 10.7 39 7.292a.505.505 0 0 0-.484-.359H36.8a.3.3 0 0 0-.287.4l1.922 5.64-1.807 2.551a.3.3 0 0 0 .247.477h1.743a.5.5 0 0 0 .414-.216l5.8-8.377a.3.3 0 0 0-.245-.476z"/><path id="Shape-3" data-name="Shape" class="cls-3" d="M50.364 3.578h-3.627a.5.5 0 0 0-.5.425l-1.466 9.3a.3.3 0 0 0 .3.349h1.861a.353.353 0 0 0 .348-.3l.416-2.636a.5.5 0 0 1 .5-.426h1.147a3.724 3.724 0 0 0 4.128-3.446 2.791 2.791 0 0 0-.466-2.344 3.361 3.361 0 0 0-2.641-.922zm.418 3.4c-.2 1.3-1.192 1.3-2.154 1.3h-.547l.384-2.43a.3.3 0 0 1 .3-.255h.251c.654 0 1.272 0 1.592.373a1.208 1.208 0 0 1 .174 1.008z"/><path id="Shape-4" data-name="Shape" class="cls-3" d="M61.2 6.932h-1.734a.3.3 0 0 0-.3.255l-.077.486-.119-.173a2.47 2.47 0 0 0-2.05-.728 3.992 3.992 0 0 0-3.876 3.492 3.279 3.279 0 0 0 .646 2.667 2.718 2.718 0 0 0 2.187.883 3.322 3.322 0 0 0 2.4-.994l-.077.48a.3.3 0 0 0 .3.35h1.564a.5.5 0 0 0 .5-.426l.936-5.943a.3.3 0 0 0-.3-.349zm-2.42 3.379a1.934 1.934 0 0 1-1.959 1.658 1.345 1.345 0 0 1-1.438-1.688A1.944 1.944 0 0 1 57.33 8.61a1.465 1.465 0 0 1 1.158.473 1.5 1.5 0 0 1 .293 1.229z"/><path id="Path-2" data-name="Path" class="cls-3" d="M63.249 3.833 61.76 13.3a.3.3 0 0 0 .3.349h1.5a.5.5 0 0 0 .5-.426l1.468-9.3a.3.3 0 0 0-.3-.349h-1.681a.3.3 0 0 0-.298.259z"/><path id="Path-3" data-name="Path" class="cls-2" d="M3.852 15.457 4.13 13.7l-.618-.014H.563l2.05-13a.172.172 0 0 1 .057-.1.167.167 0 0 1 .109-.04h4.973c1.651 0 2.79.344 3.385 1.022a2.329 2.329 0 0 1 .542 1.016 3.669 3.669 0 0 1 0 1.4l-.006.041v.358l.279.158a1.956 1.956 0 0 1 .565.431A2 2 0 0 1 12.978 6a4.346 4.346 0 0 1-.065 1.491 5.25 5.25 0 0 1-.613 1.685 3.471 3.471 0 0 1-.968 1.06 3.925 3.925 0 0 1-1.3.588 6.5 6.5 0 0 1-1.629.188h-.387A1.164 1.164 0 0 0 6.865 12l-.029.159-.49 3.1-.022.114a.1.1 0 0 1-.031.066.082.082 0 0 1-.051.019z"/><path id="Path-4" data-name="Path" class="cls-3" d="M12.22 4.065q-.022.142-.051.292c-.656 3.367-2.9 4.53-5.765 4.53H4.945a.709.709 0 0 0-.7.6L3.5 14.225l-.212 1.343a.373.373 0 0 0 .366.432h2.588a.623.623 0 0 0 .615-.525l.025-.131.487-3.092.031-.17a.622.622 0 0 1 .615-.526H8.4c2.507 0 4.47-1.018 5.044-3.964a3.375 3.375 0 0 0-.519-2.981 2.474 2.474 0 0 0-.705-.546z"/><path id="Path-5" data-name="Path" d="M11.534 3.791q-.15-.044-.31-.08T10.9 3.65a8.1 8.1 0 0 0-1.29-.094h-3.9a.622.622 0 0 0-.614.526l-.828 5.252-.024.153a.709.709 0 0 1 .7-.6H6.4c2.866 0 5.109-1.164 5.765-4.53.02-.1.036-.2.051-.292a3.5 3.5 0 0 0-.539-.227z" fill="#222d65"/><path id="Path-6" data-name="Path" class="cls-2" d="M5.1 4.082a.622.622 0 0 1 .614-.525h3.9a8.1 8.1 0 0 1 1.286.093q.169.027.328.062t.31.08l.147.046a3.549 3.549 0 0 1 .539.227 3.18 3.18 0 0 0-.674-2.859C10.8.362 9.465 0 7.752 0H2.779a.711.711 0 0 0-.7.6L.005 13.731a.427.427 0 0 0 .421.494H3.5l.771-4.891z"/></g></g></g></g></svg>