<svg xmlns="http://www.w3.org/2000/svg" width="50" height="35"><defs><style>.cls-2{fill:#00579f}</style></defs><g id="Visa-card" transform="translate(-1710.554 -457)"><rect id="Rectangle_49" data-name="Rectangle 49" width="50" height="35" rx="3" transform="translate(1710.554 457)" fill="#fff"/><g id="Style-Guide" transform="translate(1714.649 467.584)"><g id="Style-Guide---Logos" transform="translate(-219 -943)"><g id="Visa" transform="translate(219.904 943.417)"><path id="polygon9" class="cls-2" d="M17.388 12.8h-3.25L16.17.228h3.25z"/><path id="path11" class="cls-2" d="M29.171.535A8.01 8.01 0 0 0 26.255 0c-3.21 0-5.47 1.712-5.484 4.159-.027 1.806 1.618 2.808 2.849 3.41 1.258.615 1.685 1.017 1.685 1.565-.013.842-1.016 1.23-1.952 1.23A6.469 6.469 0 0 1 20.3 9.7l-.428-.2-.455 2.822a9.893 9.893 0 0 0 3.625.669c3.411 0 5.631-1.685 5.657-4.293.013-1.431-.856-2.528-2.728-3.424-1.137-.575-1.833-.963-1.833-1.552.013-.535.589-1.083 1.872-1.083a5.523 5.523 0 0 1 2.421.481l.294.133.446-2.718z"/><path id="path13" class="cls-2" d="M33.491 8.345c.268-.722 1.3-3.517 1.3-3.517-.014.027.267-.736.428-1.2l.227 1.083s.616 3.009.749 3.638zM37.5.228h-2.511a1.6 1.6 0 0 0-1.7 1.043L28.462 12.8h3.411l.682-1.886h4.173c.093.441.388 1.886.388 1.886h3.01L37.5.228z"/><path id="path15" class="cls-2" d="M11.422.228 8.239 8.8l-.348-1.739A9.622 9.622 0 0 0 3.4 1.792l2.913 10.993H9.75L14.859.228z"/><path id="path17" d="M5.283.228H.054L0 .482c4.079 1.043 6.781 3.558 7.891 6.58L6.754 1.285A1.345 1.345 0 0 0 5.283.228z" fill="#faa61a"/></g></g></g></g></svg>